<?xml version="1.0" encoding="utf-8"?>
<!-- Generator: Adobe Illustrator 18.1.1, SVG Export Plug-In . SVG Version: 6.00 Build 0)  -->
<svg version="1.1" id="Layer_1" xmlns="http://www.w3.org/2000/svg" xmlns:xlink="http://www.w3.org/1999/xlink" x="0px" y="0px"
	 viewBox="194.3 317.6 952 291.6" enable-background="new 194.3 317.6 952 291.6" xml:space="preserve">
<g>
	<g>
		<g>
			<path fill="#1A1A1A" d="M1070.2,546l-143.6,62.5l-114.9-51.9c0-9.8,0-78.5,0-86.5c-2.8,0,112.8,55.5,112.8,55.5l145.7-69V546
				L1070.2,546z"/>
		</g>
	</g>
	<g>
		<polygon fill="#1A1A1A" points="925.8,513.2 702.9,409.1 924.5,317.6 1146.3,409.1 		"/>
	</g>
	<g>
		<g>
			<polygon fill="#FFFFFF" points="879.8,440.5 866.9,435.2 979.8,383.2 992.6,388.4 			"/>
		</g>
	</g>
	<g enable-background="new    ">
		<path fill="#4D4D4D" d="M211.2,521.5c0.2,9,2.6,15.7,7,19.9c4.5,4.2,11.1,6.3,19.8,6.3c7.6,0,14.9-1.3,21.8-4
			c0.9,1.6,1.6,3.6,2.1,5.9c0.5,2.3,0.9,4.6,1,6.9c-3.6,1.5-7.5,2.6-11.7,3.4c-4.3,0.8-9,1.1-14.1,1.1c-7.5,0-14-1-19.4-3.1
			s-9.8-5.1-13.3-8.9c-3.5-3.8-6.1-8.3-7.7-13.6c-1.6-5.2-2.4-11-2.4-17.2c0-6.1,0.8-11.9,2.3-17.2c1.6-5.3,4-10,7.2-13.9
			s7.3-7,12.2-9.4c4.9-2.3,10.7-3.5,17.4-3.5c5.7,0,10.7,1,15,2.9s7.9,4.6,10.8,8s5.1,7.4,6.6,12.1s2.3,9.8,2.3,15.3
			c0,1.5-0.1,3.1-0.2,4.8s-0.2,3.1-0.3,4.3h-56.4V521.5z M252.2,509.6c0-3-0.4-5.9-1.2-8.6s-2-5.1-3.6-7.2c-1.6-2-3.6-3.7-6-4.9
			c-2.4-1.2-5.3-1.9-8.6-1.9c-6.6,0-11.6,2-15.1,6s-5.6,9.5-6.4,16.6H252.2z"/>
		<path fill="#4D4D4D" d="M342.1,440.6c1.2-0.2,2.5-0.4,4-0.5s2.8-0.2,3.9-0.2c1.2,0,2.5,0.1,4,0.2s2.8,0.3,4,0.5v116.1
			c-4.1,1.2-8.7,2.2-13.7,3c-5.1,0.8-10.7,1.2-17,1.2c-5.8,0-11.3-0.7-16.5-2.2s-9.8-3.8-13.6-7.2c-3.9-3.3-6.9-7.6-9.2-12.9
			c-2.3-5.3-3.4-11.8-3.4-19.5c0-6.7,1-12.8,3-18.2c2-5.5,4.8-10.2,8.5-14.1s8-7,13.2-9.1c5.1-2.2,10.8-3.2,17-3.2
			c2.8,0,5.6,0.2,8.5,0.6s5.4,1,7.5,1.6v-36.1H342.1z M342.1,490.2c-2.2-0.9-4.5-1.5-6.9-1.9c-2.5-0.4-5.2-0.6-8.1-0.6
			c-4.4,0-8.2,0.8-11.5,2.4c-3.2,1.6-5.9,3.8-8,6.6c-2.1,2.8-3.7,6.1-4.7,9.9s-1.5,8-1.5,12.5c0.1,10.2,2.5,17.5,7.3,22
			c4.7,4.4,11.2,6.6,19.4,6.6c2.8,0,5.4-0.1,7.7-0.4c2.4-0.3,4.5-0.7,6.3-1.2L342.1,490.2L342.1,490.2z"/>
		<path fill="#4D4D4D" d="M382.7,476.1c1.2-0.2,2.5-0.4,4-0.5s2.8-0.2,3.9-0.2c1.2,0,2.5,0.1,4,0.2s2.9,0.3,4,0.5v45.4
			c0,5.2,0.5,9.4,1.5,12.8c1,3.4,2.4,6.1,4.4,8c1.9,1.9,4.3,3.3,7.1,4c2.8,0.8,6,1.1,9.7,1.1c5.5,0,10.2-0.6,14-1.8V476
			c1.2-0.2,2.5-0.4,4-0.5s2.8-0.2,4-0.2s2.5,0.1,4,0.2s2.8,0.3,4,0.5v80.2c-3.8,1.1-8.3,2.1-13.5,3.1s-10.6,1.5-16.2,1.5
			c-5.3,0-10.3-0.5-14.9-1.4s-8.8-2.8-12.4-5.6s-6.4-6.7-8.4-11.8s-3.1-11.7-3.1-20v-45.9H382.7z"/>
		<path fill="#4D4D4D" d="M476,440.6c1.2-0.2,2.5-0.4,4-0.5s2.8-0.2,4-0.2s2.5,0.1,4,0.2s2.8,0.3,4,0.5v93.3c0,3,0.3,5.4,0.8,7.1
			c0.5,1.7,1.3,3,2.2,4c0.9,0.9,2,1.5,3.2,1.8s2.6,0.4,4,0.4c1,0,2.1-0.1,3.3-0.2c1.2-0.1,2.3-0.3,3.1-0.5c1,3.8,1.5,7.9,1.5,12.3
			c-1.5,0.5-3.3,0.9-5.5,1c-2.2,0.2-4.1,0.2-6,0.2c-3.1,0-6-0.4-8.7-1.1c-2.7-0.8-5.1-2-7.1-3.7s-3.7-4-4.8-6.9
			c-1.2-2.9-1.8-6.5-1.8-10.8v-96.9H476z"/>
		<path fill="#4D4D4D" d="M536.3,521.5c0.2,9,2.6,15.7,7,19.9c4.5,4.2,11.1,6.3,19.8,6.3c7.6,0,14.9-1.3,21.8-4
			c0.9,1.6,1.6,3.6,2.1,5.9c0.5,2.3,0.9,4.6,1,6.9c-3.6,1.5-7.5,2.6-11.7,3.4c-4.3,0.8-9,1.1-14.1,1.1c-7.5,0-14-1-19.4-3.1
			s-9.8-5.1-13.3-8.9c-3.5-3.8-6.1-8.3-7.7-13.6c-1.6-5.2-2.4-11-2.4-17.2c0-6.1,0.8-11.9,2.3-17.2c1.6-5.3,4-10,7.2-13.9
			s7.3-7,12.2-9.4c4.9-2.3,10.7-3.5,17.4-3.5c5.7,0,10.7,1,15,2.9s7.9,4.6,10.8,8c2.9,3.4,5.1,7.4,6.6,12.1s2.3,9.8,2.3,15.3
			c0,1.5-0.1,3.1-0.2,4.8c-0.1,1.7-0.2,3.1-0.3,4.3h-56.4V521.5z M577.4,509.6c0-3-0.4-5.9-1.2-8.6s-2-5.1-3.6-7.2
			c-1.6-2-3.6-3.7-6-4.9c-2.4-1.2-5.3-1.9-8.6-1.9c-6.6,0-11.6,2-15.1,6s-5.6,9.5-6.4,16.6H577.4z"/>
		<path fill="#4D4D4D" d="M669.4,544.6c0.9,1.5,1.6,3.4,2.3,5.7c0.6,2.3,1,4.6,1.1,6.9c-6.4,2.5-13.6,3.7-21.8,3.7
			c-13.8,0-24.2-3.9-31.2-11.7s-10.5-18.3-10.5-31.6c0-6.1,0.9-11.8,2.6-17.1c1.7-5.3,4.3-9.8,7.7-13.7c3.4-3.9,7.6-6.9,12.7-9.2
			c5.1-2.3,10.9-3.4,17.6-3.4c4.5,0,8.5,0.3,11.9,0.8s6.7,1.4,9.8,2.6c0,1.8-0.2,4-0.7,6.4s-1.2,4.5-2,6.4
			c-5.3-1.8-11.3-2.7-18.1-2.7c-8.3,0-14.5,2.7-18.6,8.2s-6.1,12.8-6.1,21.8c0,10.3,2.3,17.9,6.9,22.7c4.6,4.8,11,7.2,19,7.2
			c3.2,0,6.2-0.2,9-0.6C663.8,546.4,666.6,545.7,669.4,544.6z"/>
		<path fill="#4D4D4D" d="M694.4,488.9h-12.6l-0.6-2.3l27.8-31h1.3v20.5h21c0.4,1.8,0.6,3.9,0.6,6.1c0,1.2-0.1,2.3-0.2,3.4
			c-0.1,1.1-0.3,2.2-0.5,3.2h-21v37.8c0,4.5,0.2,8.1,0.6,10.8c0.4,2.7,1,4.8,1.9,6.2c0.9,1.5,2.2,2.4,3.7,2.9
			c1.6,0.5,3.5,0.7,5.9,0.7c1.8,0,3.6-0.1,5.2-0.4c1.6-0.3,3.1-0.6,4.4-0.9c0.8,2.2,1.2,4.4,1.4,6.6c0.2,2.3,0.2,4.3,0.2,6
			c-2.2,0.5-4.4,0.9-6.8,1.2c-2.4,0.3-4.9,0.4-7.6,0.4c-7.7,0-13.8-1.9-18.2-5.6c-4.4-3.8-6.5-10-6.5-18.7L694.4,488.9L694.4,488.9z
			"/>
		<path fill="#4D4D4D" d="M746.7,559c-0.2-1.5-0.4-3-0.6-4.4c-0.2-1.5-0.2-2.9-0.2-4.4s0.1-3,0.2-4.6c0.2-1.6,0.3-3.1,0.6-4.6
			c1.5-0.2,3-0.4,4.4-0.5c1.5-0.1,2.9-0.2,4.4-0.2s3,0.1,4.5,0.2c1.5,0.1,3,0.3,4.5,0.5c0.2,1.5,0.4,3,0.6,4.5
			c0.2,1.5,0.2,3,0.2,4.5s-0.1,3-0.2,4.5c-0.2,1.5-0.4,3-0.6,4.5c-1.5,0.2-3,0.4-4.4,0.5c-1.5,0.1-2.9,0.2-4.4,0.2s-3-0.1-4.5-0.2
			C749.7,559.3,748.2,559.2,746.7,559z"/>
	</g>
	<g enable-background="new    ">
		<path fill="#999999" d="M197.6,584.2c0.5-0.1,1.1-0.1,1.8-0.1c0.6,0,1.2,0,1.7,0.1v13.9c0,1.4,0.1,2.6,0.3,3.6s0.5,1.8,0.9,2.4
			c0.4,0.6,0.9,1.1,1.6,1.4c0.7,0.3,1.5,0.4,2.5,0.4s1.8-0.1,2.4-0.4c0.7-0.3,1.2-0.8,1.6-1.4s0.7-1.4,0.9-2.4s0.3-2.2,0.3-3.6
			v-13.9c0.6-0.1,1.1-0.1,1.7-0.1c0.6,0,1.2,0,1.8,0.1v14.5c0,1.6-0.2,3.1-0.5,4.4c-0.3,1.3-0.8,2.4-1.5,3.3c-0.7,0.9-1.6,1.6-2.7,2
			c-1.1,0.5-2.5,0.7-4,0.7c-1.6,0-2.9-0.2-4-0.7s-2-1.1-2.7-2s-1.2-2-1.5-3.3s-0.5-2.8-0.5-4.4v-14.5H197.6z"/>
		<path fill="#999999" d="M220.5,591.2c0.2,0,0.5-0.1,0.7-0.1s0.5,0,0.7,0s0.5,0,0.7,0s0.4,0.1,0.7,0.1c0.1,0.3,0.1,0.8,0.2,1.4
			c0.1,0.6,0.1,1.1,0.1,1.4c0.2-0.4,0.5-0.8,0.9-1.2s0.8-0.7,1.2-1c0.5-0.3,1-0.6,1.6-0.7s1.2-0.3,1.9-0.3c2,0,3.5,0.6,4.4,1.7
			c1,1.1,1.4,2.8,1.4,5.1v11c-0.2,0-0.5,0.1-0.8,0.1s-0.6,0-0.8,0s-0.5,0-0.8,0s-0.6-0.1-0.8-0.1v-10.1c0-1.6-0.2-2.8-0.7-3.6
			s-1.3-1.1-2.4-1.1c-0.6,0-1.2,0.1-1.8,0.3s-1.1,0.6-1.5,1.1s-0.8,1.1-1,1.9c-0.3,0.8-0.4,1.7-0.4,2.7v8.8c-0.2,0-0.5,0.1-0.8,0.1
			s-0.6,0-0.8,0c-0.3,0-0.5,0-0.8,0s-0.6-0.1-0.9-0.1v-17.4H220.5z"/>
		<path fill="#999999" d="M240.1,583.7c0.2,0,0.5-0.1,0.8-0.1s0.6,0,0.8,0s0.5,0,0.9,0c0.3,0,0.6,0.1,0.8,0.1v9.6
			c0.4-0.7,1-1.3,1.9-1.8s1.9-0.7,3.1-0.7c1,0,2,0.2,2.9,0.5s1.6,0.9,2.3,1.6s1.1,1.6,1.5,2.7c0.4,1.1,0.5,2.4,0.5,3.9
			c0,3-0.8,5.3-2.5,7s-4.1,2.5-7.3,2.5c-1,0-2-0.1-3.1-0.3s-1.9-0.4-2.7-0.7v-24.3H240.1z M243.5,605.8c0.4,0.1,0.8,0.2,1.3,0.3
			s0.9,0.1,1.4,0.1c0.8,0,1.6-0.1,2.3-0.4c0.7-0.3,1.3-0.7,1.9-1.2c0.5-0.5,0.9-1.2,1.2-2s0.5-1.8,0.5-2.9c0-1.9-0.3-3.3-1-4.4
			c-0.7-1-1.7-1.6-3.3-1.6c-0.5,0-1,0.1-1.5,0.3s-1,0.4-1.4,0.8c-0.4,0.4-0.8,0.9-1,1.5c-0.3,0.6-0.4,1.4-0.4,2.3V605.8z"/>
		<path fill="#999999" d="M261.2,593.9H259c0-0.2-0.1-0.4-0.1-0.6s0-0.5,0-0.7s0-0.5,0-0.7s0.1-0.4,0.1-0.6h5.5v17.4
			c-0.2,0-0.5,0.1-0.8,0.1s-0.6,0-0.8,0c-0.2,0-0.5,0-0.8,0s-0.6-0.1-0.8-0.1v-14.8H261.2z M260.4,587.4c0-0.3-0.1-0.6-0.1-0.9
			c0-0.3,0-0.6,0-0.8s0-0.5,0-0.8s0-0.6,0.1-0.8c0.3,0,0.6-0.1,1-0.1c0.3,0,0.6,0,0.9,0c0.2,0,0.5,0,0.9,0c0.3,0,0.6,0.1,0.9,0.1
			c0,0.2,0.1,0.5,0.1,0.8s0,0.6,0,0.8s0,0.5,0,0.8s0,0.6-0.1,0.9c-0.3,0-0.6,0.1-0.9,0.1s-0.6,0-0.9,0s-0.6,0-0.9,0
			S260.7,587.4,260.4,587.4z"/>
		<path fill="#999999" d="M279.2,597.1c0-1.3-0.3-2.3-1-2.8s-1.7-0.8-3-0.8c-0.8,0-1.5,0.1-2.2,0.2c-0.7,0.1-1.4,0.3-2,0.5
			c-0.4-0.7-0.6-1.6-0.6-2.7c0.8-0.2,1.6-0.4,2.5-0.6c0.9-0.1,1.8-0.2,2.7-0.2c2.3,0,4,0.5,5.2,1.5s1.8,2.7,1.8,4.9V608
			c-0.8,0.2-1.8,0.4-2.9,0.6c-1.1,0.2-2.3,0.3-3.5,0.3c-1.1,0-2.1-0.1-3-0.3s-1.7-0.5-2.3-1c-0.6-0.5-1.1-1-1.4-1.7
			s-0.5-1.6-0.5-2.5c0-1,0.2-1.8,0.6-2.6c0.4-0.7,0.9-1.3,1.6-1.8s1.5-0.8,2.3-1.1c0.9-0.2,1.8-0.4,2.8-0.4c0.7,0,1.3,0,1.8,0.1
			c0.5,0,0.9,0.1,1.2,0.1v-0.6H279.2z M279.2,600.4c-0.3,0-0.8-0.1-1.3-0.1s-1-0.1-1.3-0.1c-1.4,0-2.5,0.3-3.2,0.8s-1.1,1.3-1.1,2.4
			c0,0.7,0.1,1.2,0.4,1.6c0.2,0.4,0.6,0.7,0.9,0.9c0.4,0.2,0.8,0.3,1.2,0.4c0.5,0,0.9,0.1,1.3,0.1c0.5,0,1.1,0,1.6-0.1
			c0.6-0.1,1-0.1,1.5-0.3V600.4z"/>
		<path fill="#999999" d="M287.2,605.5c0.6,0.3,1.3,0.4,2,0.6c0.7,0.1,1.5,0.2,2.2,0.2c0.5,0,1-0.1,1.5-0.2c0.5-0.1,0.9-0.3,1.2-0.5
			c0.4-0.2,0.6-0.5,0.8-0.8c0.2-0.3,0.3-0.7,0.3-1.1c0-0.5-0.1-0.8-0.3-1.1c-0.2-0.3-0.4-0.5-0.7-0.7s-0.6-0.4-1-0.5
			s-0.8-0.3-1.2-0.4l-1.2-0.4c-1.5-0.5-2.5-1.2-3.2-1.8c-0.7-0.7-1-1.6-1-2.8c0-1.5,0.5-2.8,1.6-3.7s2.7-1.4,4.8-1.4
			c0.9,0,1.8,0.1,2.6,0.3s1.6,0.4,2.2,0.6c0,0.5-0.1,0.9-0.3,1.4s-0.3,0.9-0.5,1.3c-0.5-0.2-1.1-0.4-1.8-0.5
			c-0.7-0.2-1.4-0.3-2.2-0.3c-0.8,0-1.6,0.1-2.2,0.4c-0.6,0.3-1,0.8-1,1.6c0,0.4,0.1,0.7,0.2,1c0.2,0.3,0.4,0.5,0.6,0.7
			c0.3,0.2,0.6,0.4,0.9,0.5c0.4,0.1,0.7,0.3,1.1,0.4l1.5,0.5c0.5,0.2,1.1,0.4,1.5,0.6c0.5,0.2,0.9,0.6,1.3,0.9
			c0.4,0.4,0.6,0.8,0.8,1.4s0.3,1.2,0.3,1.9c0,0.8-0.2,1.6-0.5,2.3s-0.8,1.3-1.4,1.8s-1.4,0.9-2.3,1.1c-0.9,0.3-1.9,0.4-2.9,0.4
			c-1.1,0-2-0.1-2.9-0.2c-0.8-0.1-1.6-0.3-2.3-0.6c0-0.5,0.1-0.9,0.3-1.4C286.9,606.4,287,605.9,287.2,605.5z"/>
		<path fill="#999999" d="M305.5,600.8c0,1.9,0.5,3.3,1.5,4.2c0.9,0.9,2.3,1.3,4.2,1.3c1.6,0,3.1-0.3,4.6-0.8
			c0.2,0.3,0.3,0.8,0.4,1.2c0.1,0.5,0.2,1,0.2,1.4c-0.7,0.3-1.6,0.6-2.5,0.7c-0.9,0.2-1.9,0.2-3,0.2c-1.6,0-2.9-0.2-4.1-0.7
			c-1.1-0.4-2.1-1.1-2.8-1.9c-0.7-0.8-1.3-1.8-1.6-2.9c-0.3-1.1-0.5-2.3-0.5-3.6s0.2-2.5,0.5-3.6s0.8-2.1,1.5-2.9
			c0.7-0.8,1.5-1.5,2.6-2c1-0.5,2.2-0.7,3.7-0.7c1.2,0,2.3,0.2,3.2,0.6c0.9,0.4,1.7,1,2.3,1.7s1.1,1.6,1.4,2.5
			c0.3,1,0.5,2.1,0.5,3.2c0,0.3,0,0.7,0,1c0,0.4,0,0.7-0.1,0.9h-12V600.8z M314.1,598.2c0-0.6-0.1-1.2-0.3-1.8
			c-0.2-0.6-0.4-1.1-0.7-1.5s-0.7-0.8-1.3-1c-0.5-0.3-1.1-0.4-1.8-0.4c-1.4,0-2.4,0.4-3.2,1.3s-1.2,2-1.3,3.5L314.1,598.2
			L314.1,598.2z"/>
		<path fill="#999999" d="M333.1,583.7c0.2,0,0.5-0.1,0.9-0.1c0.3,0,0.6,0,0.8,0c0.2,0,0.5,0,0.8,0s0.6,0.1,0.8,0.1v24.4
			c-0.9,0.2-1.8,0.5-2.9,0.6s-2.3,0.3-3.6,0.3c-1.2,0-2.4-0.2-3.5-0.5s-2.1-0.8-2.9-1.5s-1.5-1.6-1.9-2.7c-0.5-1.1-0.7-2.5-0.7-4.1
			c0-1.4,0.2-2.7,0.6-3.8c0.4-1.2,1-2.1,1.8-3c0.8-0.8,1.7-1.5,2.8-1.9s2.3-0.7,3.6-0.7c0.6,0,1.2,0,1.8,0.1
			c0.6,0.1,1.1,0.2,1.6,0.3L333.1,583.7L333.1,583.7z M333.1,594.2c-0.5-0.2-0.9-0.3-1.5-0.4c-0.5-0.1-1.1-0.1-1.7-0.1
			c-0.9,0-1.7,0.2-2.4,0.5s-1.2,0.8-1.7,1.4c-0.4,0.6-0.8,1.3-1,2.1s-0.3,1.7-0.3,2.6c0,2.2,0.5,3.7,1.5,4.6c1,0.9,2.4,1.4,4.1,1.4
			c0.6,0,1.1,0,1.6-0.1s0.9-0.1,1.3-0.3v-11.7H333.1z"/>
		<path fill="#999999" d="M352.4,600.8c0,1.9,0.5,3.3,1.5,4.2c0.9,0.9,2.3,1.3,4.2,1.3c1.6,0,3.1-0.3,4.6-0.8
			c0.2,0.3,0.3,0.8,0.4,1.2c0.1,0.5,0.2,1,0.2,1.4c-0.7,0.3-1.6,0.6-2.5,0.7c-0.9,0.2-1.9,0.2-3,0.2c-1.6,0-2.9-0.2-4.1-0.7
			c-1.1-0.4-2.1-1.1-2.8-1.9c-0.7-0.8-1.3-1.8-1.6-2.9c-0.3-1.1-0.5-2.3-0.5-3.6s0.2-2.5,0.5-3.6s0.8-2.1,1.5-2.9
			c0.7-0.8,1.5-1.5,2.6-2c1-0.5,2.2-0.7,3.7-0.7c1.2,0,2.3,0.2,3.2,0.6c0.9,0.4,1.7,1,2.3,1.7s1.1,1.6,1.4,2.5
			c0.3,1,0.5,2.1,0.5,3.2c0,0.3,0,0.7,0,1c0,0.4,0,0.7-0.1,0.9h-12V600.8z M361,598.2c0-0.6-0.1-1.2-0.3-1.8
			c-0.2-0.6-0.4-1.1-0.7-1.5s-0.7-0.8-1.3-1c-0.5-0.3-1.1-0.4-1.8-0.4c-1.4,0-2.4,0.4-3.2,1.3s-1.2,2-1.3,3.5L361,598.2L361,598.2z"
			/>
		<path fill="#999999" d="M368.7,583.7c0.2,0,0.5-0.1,0.8-0.1s0.6,0,0.8,0c0.2,0,0.5,0,0.8,0s0.6,0.1,0.8,0.1v19.6
			c0,0.6,0.1,1.1,0.2,1.5s0.3,0.6,0.5,0.8s0.4,0.3,0.7,0.4c0.3,0.1,0.5,0.1,0.8,0.1c0.2,0,0.4,0,0.7,0c0.3,0,0.5-0.1,0.7-0.1
			c0.2,0.8,0.3,1.7,0.3,2.6c-0.3,0.1-0.7,0.2-1.2,0.2s-0.9,0.1-1.3,0.1c-0.7,0-1.3-0.1-1.8-0.2c-0.6-0.2-1.1-0.4-1.5-0.8
			c-0.4-0.4-0.8-0.9-1-1.5s-0.4-1.4-0.4-2.3v-20.4H368.7z"/>
		<path fill="#999999" d="M381.4,600.8c0,1.9,0.5,3.3,1.5,4.2c0.9,0.9,2.3,1.3,4.2,1.3c1.6,0,3.1-0.3,4.6-0.8
			c0.2,0.3,0.3,0.8,0.4,1.2c0.1,0.5,0.2,1,0.2,1.4c-0.7,0.3-1.6,0.6-2.5,0.7c-0.9,0.2-1.9,0.2-3,0.2c-1.6,0-2.9-0.2-4.1-0.7
			c-1.1-0.4-2.1-1.1-2.8-1.9c-0.7-0.8-1.3-1.8-1.6-2.9c-0.3-1.1-0.5-2.3-0.5-3.6s0.2-2.5,0.5-3.6s0.8-2.1,1.5-2.9
			c0.7-0.8,1.5-1.5,2.6-2c1-0.5,2.2-0.7,3.7-0.7c1.2,0,2.3,0.2,3.2,0.6c0.9,0.4,1.7,1,2.3,1.7s1.1,1.6,1.4,2.5
			c0.3,1,0.5,2.1,0.5,3.2c0,0.3,0,0.7,0,1c0,0.4,0,0.7-0.1,0.9h-12V600.8z M390,598.2c0-0.6-0.1-1.2-0.3-1.8
			c-0.2-0.6-0.4-1.1-0.7-1.5s-0.7-0.8-1.3-1c-0.5-0.3-1.1-0.4-1.8-0.4c-1.4,0-2.4,0.4-3.2,1.3s-1.2,2-1.3,3.5L390,598.2L390,598.2z"
			/>
		<path fill="#999999" d="M409.4,605.6c0.2,0.3,0.3,0.7,0.5,1.2c0.1,0.5,0.2,1,0.2,1.5c-1.3,0.5-2.9,0.8-4.6,0.8
			c-2.9,0-5.1-0.8-6.6-2.5c-1.5-1.6-2.2-3.9-2.2-6.6c0-1.3,0.2-2.5,0.5-3.6c0.4-1.1,0.9-2.1,1.6-2.9c0.7-0.8,1.6-1.5,2.7-1.9
			c1.1-0.5,2.3-0.7,3.7-0.7c1,0,1.8,0.1,2.5,0.2c0.7,0.1,1.4,0.3,2.1,0.5c0,0.4-0.1,0.8-0.2,1.3s-0.2,1-0.4,1.3
			c-1.1-0.4-2.4-0.6-3.8-0.6c-1.7,0-3,0.6-3.9,1.7c-0.9,1.2-1.3,2.7-1.3,4.6c0,2.2,0.5,3.8,1.5,4.8s2.3,1.5,4,1.5
			c0.7,0,1.3,0,1.9-0.1C408.2,606,408.8,605.8,409.4,605.6z"/>
		<path fill="#999999" d="M414.7,593.9H412l-0.1-0.5l5.8-6.5h0.3v4.3h4.4c0.1,0.4,0.1,0.8,0.1,1.3c0,0.2,0,0.5,0,0.7
			s-0.1,0.5-0.1,0.7H418v8c0,1,0,1.7,0.1,2.3s0.2,1,0.4,1.3c0.2,0.3,0.5,0.5,0.8,0.6s0.7,0.2,1.2,0.2c0.4,0,0.7,0,1.1-0.1
			c0.3-0.1,0.6-0.1,0.9-0.2c0.2,0.5,0.3,0.9,0.3,1.4s0.1,0.9,0.1,1.3c-0.5,0.1-0.9,0.2-1.4,0.3s-1,0.1-1.6,0.1
			c-1.6,0-2.9-0.4-3.8-1.2s-1.4-2.1-1.4-3.9V593.9z"/>
		<path fill="#999999" d="M427.2,593.9H425c0-0.2-0.1-0.4-0.1-0.6s0-0.5,0-0.7s0-0.5,0-0.7s0.1-0.4,0.1-0.6h5.5v17.4
			c-0.2,0-0.5,0.1-0.8,0.1s-0.6,0-0.8,0c-0.2,0-0.5,0-0.8,0s-0.6-0.1-0.8-0.1v-14.8H427.2z M426.5,587.4c0-0.3-0.1-0.6-0.1-0.9
			c0-0.3,0-0.6,0-0.8s0-0.5,0-0.8s0-0.6,0.1-0.8c0.3,0,0.6-0.1,1-0.1c0.3,0,0.6,0,0.9,0c0.2,0,0.5,0,0.9,0c0.3,0,0.6,0.1,0.9,0.1
			c0,0.2,0.1,0.5,0.1,0.8s0,0.6,0,0.8s0,0.5,0,0.8s0,0.6-0.1,0.9c-0.3,0-0.6,0.1-0.9,0.1s-0.6,0-0.9,0s-0.6,0-0.9,0
			S426.8,587.4,426.5,587.4z"/>
		<path fill="#999999" d="M443.1,609c-1.4,0-2.5-0.2-3.6-0.7s-1.9-1.1-2.5-1.9s-1.2-1.8-1.5-2.9c-0.3-1.1-0.5-2.3-0.5-3.6
			s0.2-2.5,0.5-3.6s0.8-2.1,1.5-2.9c0.7-0.8,1.5-1.5,2.5-1.9c1-0.5,2.2-0.7,3.6-0.7s2.5,0.2,3.6,0.7c1,0.5,1.9,1.1,2.5,1.9
			c0.7,0.8,1.2,1.8,1.5,2.9c0.3,1.1,0.5,2.3,0.5,3.6s-0.2,2.5-0.5,3.6s-0.8,2.1-1.5,2.9s-1.5,1.5-2.5,1.9S444.4,609,443.1,609z
			 M443.1,606.4c1.6,0,2.7-0.6,3.5-1.7c0.7-1.1,1.1-2.7,1.1-4.7s-0.4-3.6-1.1-4.7c-0.7-1.1-1.9-1.7-3.5-1.7s-2.7,0.6-3.4,1.7
			c-0.7,1.1-1.1,2.7-1.1,4.7s0.4,3.6,1.1,4.7C440.3,605.8,441.5,606.4,443.1,606.4z"/>
		<path fill="#999999" d="M455.6,591.2c0.2,0,0.5-0.1,0.7-0.1s0.5,0,0.7,0s0.5,0,0.7,0s0.4,0.1,0.7,0.1c0.1,0.3,0.1,0.8,0.2,1.4
			c0.1,0.6,0.1,1.1,0.1,1.4c0.2-0.4,0.5-0.8,0.9-1.2s0.8-0.7,1.2-1c0.5-0.3,1-0.6,1.6-0.7s1.2-0.3,1.9-0.3c2,0,3.5,0.6,4.4,1.7
			c1,1.1,1.4,2.8,1.4,5.1v11c-0.2,0-0.5,0.1-0.8,0.1s-0.6,0-0.8,0c-0.2,0-0.5,0-0.8,0s-0.6-0.1-0.8-0.1v-10.1c0-1.6-0.2-2.8-0.7-3.6
			s-1.3-1.1-2.4-1.1c-0.6,0-1.2,0.1-1.8,0.3s-1.1,0.6-1.5,1.1s-0.8,1.1-1,1.9c-0.3,0.8-0.4,1.7-0.4,2.7v8.8c-0.2,0-0.5,0.1-0.8,0.1
			s-0.6,0-0.8,0c-0.3,0-0.5,0-0.8,0s-0.6-0.1-0.9-0.1v-17.4H455.6z"/>
		<path fill="#999999" d="M485.8,600.8c0,1.9,0.5,3.3,1.5,4.2c0.9,0.9,2.3,1.3,4.2,1.3c1.6,0,3.1-0.3,4.6-0.8
			c0.2,0.3,0.3,0.8,0.4,1.2c0.1,0.5,0.2,1,0.2,1.4c-0.7,0.3-1.6,0.6-2.5,0.7c-0.9,0.2-1.9,0.2-3,0.2c-1.6,0-2.9-0.2-4.1-0.7
			c-1.1-0.4-2.1-1.1-2.8-1.9c-0.7-0.8-1.3-1.8-1.6-2.9c-0.3-1.1-0.5-2.3-0.5-3.6s0.2-2.5,0.5-3.6s0.8-2.1,1.5-2.9
			c0.7-0.8,1.5-1.5,2.6-2s2.2-0.7,3.7-0.7c1.2,0,2.3,0.2,3.2,0.6c0.9,0.4,1.7,1,2.3,1.7c0.6,0.7,1.1,1.6,1.4,2.5
			c0.3,1,0.5,2.1,0.5,3.2c0,0.3,0,0.7,0,1s0,0.7-0.1,0.9h-12V600.8z M494.4,598.2c0-0.6-0.1-1.2-0.3-1.8c-0.2-0.6-0.4-1.1-0.7-1.5
			c-0.3-0.4-0.7-0.8-1.3-1c-0.5-0.3-1.1-0.4-1.8-0.4c-1.4,0-2.4,0.4-3.2,1.3s-1.2,2-1.3,3.5L494.4,598.2L494.4,598.2z"/>
		<path fill="#999999" d="M513.4,583.7c0.2,0,0.5-0.1,0.8-0.1s0.6,0,0.8,0s0.5,0,0.8,0s0.6,0.1,0.8,0.1v24.4
			c-0.9,0.2-1.8,0.5-2.9,0.6c-1.1,0.2-2.3,0.3-3.6,0.3c-1.2,0-2.4-0.2-3.5-0.5s-2.1-0.8-2.9-1.5s-1.5-1.6-1.9-2.7
			c-0.5-1.1-0.7-2.5-0.7-4.1c0-1.4,0.2-2.7,0.6-3.8c0.4-1.2,1-2.1,1.8-3c0.8-0.8,1.7-1.5,2.8-1.9s2.3-0.7,3.6-0.7
			c0.6,0,1.2,0,1.8,0.1c0.6,0.1,1.1,0.2,1.6,0.3v-7.5H513.4z M513.4,594.2c-0.5-0.2-0.9-0.3-1.5-0.4c-0.5-0.1-1.1-0.1-1.7-0.1
			c-0.9,0-1.7,0.2-2.4,0.5s-1.2,0.8-1.7,1.4c-0.4,0.6-0.8,1.3-1,2.1s-0.3,1.7-0.3,2.6c0,2.2,0.5,3.7,1.5,4.6c1,0.9,2.4,1.4,4.1,1.4
			c0.6,0,1.1,0,1.6-0.1c0.5-0.1,0.9-0.1,1.3-0.3v-11.7H513.4z"/>
		<path fill="#999999" d="M521.9,591.2c0.2,0,0.5-0.1,0.8-0.1s0.6,0,0.8,0s0.5,0,0.8,0s0.6,0.1,0.8,0.1v9.6c0,1.1,0.1,2,0.3,2.7
			s0.5,1.3,0.9,1.7s0.9,0.7,1.5,0.8c0.6,0.2,1.3,0.2,2,0.2c1.2,0,2.1-0.1,3-0.4v-14.6c0.2,0,0.5-0.1,0.8-0.1s0.6,0,0.8,0
			s0.5,0,0.8,0s0.6,0.1,0.8,0.1v16.9c-0.8,0.2-1.7,0.4-2.8,0.6c-1.1,0.2-2.2,0.3-3.4,0.3c-1.1,0-2.2-0.1-3.1-0.3
			c-1-0.2-1.9-0.6-2.6-1.2c-0.7-0.6-1.3-1.4-1.8-2.5c-0.4-1.1-0.6-2.5-0.6-4.2v-9.6H521.9z"/>
		<path fill="#999999" d="M553.2,605.6c0.2,0.3,0.3,0.7,0.5,1.2c0.1,0.5,0.2,1,0.2,1.5c-1.3,0.5-2.9,0.8-4.6,0.8
			c-2.9,0-5.1-0.8-6.6-2.5c-1.5-1.6-2.2-3.9-2.2-6.6c0-1.3,0.2-2.5,0.5-3.6s0.9-2.1,1.6-2.9c0.7-0.8,1.6-1.5,2.7-1.9
			c1.1-0.5,2.3-0.7,3.7-0.7c1,0,1.8,0.1,2.5,0.2c0.7,0.1,1.4,0.3,2.1,0.5c0,0.4-0.1,0.8-0.2,1.3c-0.1,0.5-0.2,1-0.4,1.3
			c-1.1-0.4-2.4-0.6-3.8-0.6c-1.7,0-3,0.6-3.9,1.7c-0.9,1.2-1.3,2.7-1.3,4.6c0,2.2,0.5,3.8,1.5,4.8s2.3,1.5,4,1.5
			c0.7,0,1.3,0,1.9-0.1C552.1,606,552.6,605.8,553.2,605.6z"/>
		<path fill="#999999" d="M567.1,597.1c0-1.3-0.3-2.3-1-2.8s-1.7-0.8-3-0.8c-0.8,0-1.5,0.1-2.2,0.2c-0.7,0.1-1.4,0.3-2,0.5
			c-0.4-0.7-0.6-1.6-0.6-2.7c0.8-0.2,1.6-0.4,2.5-0.6c0.9-0.1,1.8-0.2,2.7-0.2c2.3,0,4,0.5,5.2,1.5s1.8,2.7,1.8,4.9V608
			c-0.8,0.2-1.8,0.4-2.9,0.6s-2.3,0.3-3.5,0.3c-1.1,0-2.1-0.1-3-0.3s-1.7-0.5-2.3-1s-1.1-1-1.4-1.7c-0.3-0.7-0.5-1.6-0.5-2.5
			c0-1,0.2-1.8,0.6-2.6c0.4-0.7,0.9-1.3,1.6-1.8s1.5-0.8,2.3-1.1c0.9-0.2,1.8-0.4,2.8-0.4c0.7,0,1.3,0,1.8,0.1
			c0.5,0,0.9,0.1,1.2,0.1L567.1,597.1L567.1,597.1z M567.1,600.4c-0.3,0-0.8-0.1-1.3-0.1s-1-0.1-1.3-0.1c-1.4,0-2.5,0.3-3.2,0.8
			s-1.1,1.3-1.1,2.4c0,0.7,0.1,1.2,0.4,1.6c0.2,0.4,0.6,0.7,0.9,0.9s0.8,0.3,1.2,0.4c0.5,0,0.9,0.1,1.3,0.1c0.5,0,1.1,0,1.6-0.1
			c0.6-0.1,1-0.1,1.5-0.3L567.1,600.4L567.1,600.4z"/>
		<path fill="#999999" d="M576.1,593.9h-2.7l-0.1-0.5l5.8-6.5h0.3v4.3h4.4c0.1,0.4,0.1,0.8,0.1,1.3c0,0.2,0,0.5,0,0.7
			s-0.1,0.5-0.1,0.7h-4.4v8c0,1,0,1.7,0.1,2.3s0.2,1,0.4,1.3s0.5,0.5,0.8,0.6s0.7,0.2,1.2,0.2c0.4,0,0.7,0,1.1-0.1
			c0.3-0.1,0.6-0.1,0.9-0.2c0.2,0.5,0.3,0.9,0.3,1.4s0.1,0.9,0.1,1.3c-0.5,0.1-0.9,0.2-1.4,0.3s-1,0.1-1.6,0.1
			c-1.6,0-2.9-0.4-3.8-1.2c-0.9-0.8-1.4-2.1-1.4-3.9L576.1,593.9L576.1,593.9z"/>
		<path fill="#999999" d="M588.6,593.9h-2.2c0-0.2-0.1-0.4-0.1-0.6c0-0.2,0-0.5,0-0.7s0-0.5,0-0.7s0.1-0.4,0.1-0.6h5.5v17.4
			c-0.2,0-0.5,0.1-0.8,0.1s-0.6,0-0.8,0s-0.5,0-0.8,0s-0.6-0.1-0.8-0.1v-14.8H588.6z M587.9,587.4c0-0.3-0.1-0.6-0.1-0.9
			c0-0.3,0-0.6,0-0.8s0-0.5,0-0.8s0-0.6,0.1-0.8c0.3,0,0.6-0.1,1-0.1c0.3,0,0.6,0,0.9,0c0.2,0,0.5,0,0.9,0c0.3,0,0.6,0.1,0.9,0.1
			c0,0.2,0.1,0.5,0.1,0.8s0,0.6,0,0.8s0,0.5,0,0.8s0,0.6-0.1,0.9c-0.3,0-0.6,0.1-0.9,0.1s-0.6,0-0.9,0c-0.3,0-0.6,0-0.9,0
			S588.2,587.4,587.9,587.4z"/>
		<path fill="#999999" d="M604.5,609c-1.4,0-2.5-0.2-3.6-0.7s-1.9-1.1-2.5-1.9s-1.2-1.8-1.5-2.9c-0.3-1.1-0.5-2.3-0.5-3.6
			s0.2-2.5,0.5-3.6s0.8-2.1,1.5-2.9c0.7-0.8,1.5-1.5,2.5-1.9c1-0.5,2.2-0.7,3.6-0.7s2.5,0.2,3.6,0.7c1,0.5,1.9,1.1,2.5,1.9
			c0.7,0.8,1.2,1.8,1.5,2.9s0.5,2.3,0.5,3.6s-0.2,2.5-0.5,3.6s-0.8,2.1-1.5,2.9s-1.5,1.5-2.5,1.9S605.8,609,604.5,609z M604.5,606.4
			c1.6,0,2.7-0.6,3.5-1.7c0.7-1.1,1.1-2.7,1.1-4.7s-0.4-3.6-1.1-4.7c-0.7-1.1-1.9-1.7-3.5-1.7s-2.7,0.6-3.4,1.7
			c-0.7,1.1-1.1,2.7-1.1,4.7s0.4,3.6,1.1,4.7C601.7,605.8,602.9,606.4,604.5,606.4z"/>
		<path fill="#999999" d="M617,591.2c0.2,0,0.5-0.1,0.7-0.1s0.5,0,0.7,0s0.5,0,0.7,0s0.4,0.1,0.7,0.1c0.1,0.3,0.1,0.8,0.2,1.4
			c0.1,0.6,0.1,1.1,0.1,1.4c0.2-0.4,0.5-0.8,0.9-1.2s0.8-0.7,1.2-1c0.5-0.3,1-0.6,1.6-0.7c0.6-0.2,1.2-0.3,1.9-0.3
			c2,0,3.5,0.6,4.4,1.7c1,1.1,1.4,2.8,1.4,5.1v11c-0.2,0-0.5,0.1-0.8,0.1s-0.6,0-0.8,0s-0.5,0-0.8,0s-0.6-0.1-0.8-0.1v-10.1
			c0-1.6-0.3-2.8-0.7-3.6c-0.5-0.8-1.3-1.1-2.4-1.1c-0.6,0-1.2,0.1-1.8,0.3s-1.1,0.6-1.5,1.1s-0.8,1.1-1,1.9
			c-0.3,0.8-0.4,1.7-0.4,2.7v8.8c-0.3,0-0.5,0.1-0.8,0.1s-0.6,0-0.8,0s-0.5,0-0.8,0s-0.6-0.1-0.8-0.1v-17.4H617z"/>
		<path fill="#999999" d="M645.9,593.9H643c-0.1-0.4-0.1-0.8-0.1-1.3s0-0.9,0.1-1.3h2.9V590c0-2.2,0.5-3.8,1.6-4.9
			c1.1-1.1,2.6-1.7,4.7-1.7c0.6,0,1.1,0,1.5,0.1s0.8,0.1,1.2,0.3c0,0.6-0.1,1.1-0.2,1.5c-0.1,0.4-0.2,0.8-0.3,1.3
			c-0.2,0-0.5-0.1-0.8-0.2c-0.3-0.1-0.7-0.1-1.1-0.1c-0.5,0-0.9,0.1-1.3,0.2s-0.7,0.3-1,0.6s-0.5,0.7-0.7,1.2s-0.2,1.2-0.2,2v1.1
			h4.5c0.1,0.5,0.1,0.9,0.1,1.4c0,0.4,0,0.8-0.1,1.3h-4.5v14.8c-0.3,0-0.5,0.1-0.8,0.1s-0.6,0-0.8,0s-0.5,0-0.8,0s-0.6-0.1-0.8-0.1
			v-15H645.9z"/>
		<path fill="#999999" d="M663.5,609c-1.4,0-2.5-0.2-3.6-0.7s-1.9-1.1-2.5-1.9s-1.2-1.8-1.5-2.9c-0.3-1.1-0.5-2.3-0.5-3.6
			s0.2-2.5,0.5-3.6s0.8-2.1,1.5-2.9c0.7-0.8,1.5-1.5,2.5-1.9c1-0.5,2.2-0.7,3.6-0.7s2.5,0.2,3.6,0.7c1,0.5,1.9,1.1,2.5,1.9
			c0.7,0.8,1.2,1.8,1.5,2.9s0.5,2.3,0.5,3.6s-0.2,2.5-0.5,3.6s-0.8,2.1-1.5,2.9s-1.5,1.5-2.5,1.9S664.9,609,663.5,609z M663.5,606.4
			c1.6,0,2.7-0.6,3.5-1.7c0.7-1.1,1.1-2.7,1.1-4.7s-0.4-3.6-1.1-4.7c-0.7-1.1-1.9-1.7-3.5-1.7s-2.7,0.6-3.4,1.7
			c-0.7,1.1-1.1,2.7-1.1,4.7s0.4,3.6,1.1,4.7C660.8,605.8,662,606.4,663.5,606.4z"/>
		<path fill="#999999" d="M676.1,591.2c0.2,0,0.5-0.1,0.7-0.1s0.5,0,0.7,0s0.5,0,0.7,0s0.5,0.1,0.7,0.1c0.1,0.3,0.1,0.8,0.2,1.3
			c0.1,0.6,0.1,1,0.1,1.4c0.5-0.8,1.1-1.4,1.9-2c0.8-0.6,1.8-0.8,3-0.8c0.2,0,0.4,0,0.6,0c0.2,0,0.4,0,0.5,0.1
			c0,0.2,0.1,0.4,0.1,0.6c0,0.2,0,0.5,0,0.7c0,0.3,0,0.6-0.1,0.8c0,0.3-0.1,0.6-0.1,0.8c-0.2,0-0.4-0.1-0.6-0.1s-0.3,0-0.5,0
			c-0.6,0-1.2,0.1-1.8,0.3s-1.1,0.5-1.5,0.9s-0.8,1-1.1,1.8c-0.3,0.7-0.4,1.7-0.4,2.9v8.7c-0.3,0-0.5,0.1-0.8,0.1s-0.6,0-0.8,0
			s-0.5,0-0.8,0s-0.6-0.1-0.9-0.1v-17.4H676.1z"/>
		<path fill="#999999" d="M696.5,605.5c0.6,0.3,1.3,0.4,2,0.6c0.7,0.1,1.5,0.2,2.2,0.2c0.5,0,1-0.1,1.5-0.2s0.9-0.3,1.2-0.5
			s0.6-0.5,0.8-0.8s0.3-0.7,0.3-1.1c0-0.5-0.1-0.8-0.3-1.1s-0.4-0.5-0.7-0.7s-0.6-0.4-1-0.5s-0.8-0.3-1.2-0.4l-1.2-0.4
			c-1.5-0.5-2.5-1.2-3.2-1.8c-0.7-0.7-1-1.6-1-2.8c0-1.5,0.5-2.8,1.6-3.7s2.7-1.4,4.8-1.4c0.9,0,1.8,0.1,2.6,0.3s1.6,0.4,2.2,0.6
			c0,0.5-0.1,0.9-0.3,1.4c-0.1,0.5-0.3,0.9-0.5,1.3c-0.5-0.2-1.1-0.4-1.8-0.5s-1.4-0.3-2.2-0.3s-1.6,0.1-2.2,0.4
			c-0.6,0.3-1,0.8-1,1.6c0,0.4,0.1,0.7,0.2,1c0.2,0.3,0.4,0.5,0.6,0.7c0.3,0.2,0.6,0.4,0.9,0.5s0.7,0.3,1.1,0.4l1.5,0.5
			c0.5,0.2,1.1,0.4,1.5,0.6c0.5,0.2,0.9,0.6,1.3,0.9c0.4,0.4,0.6,0.8,0.8,1.4c0.2,0.5,0.3,1.2,0.3,1.9c0,0.8-0.2,1.6-0.5,2.3
			s-0.8,1.3-1.4,1.8s-1.4,0.9-2.3,1.1s-1.9,0.4-2.9,0.4c-1.1,0-2-0.1-2.9-0.2c-0.8-0.1-1.6-0.3-2.3-0.6c0-0.5,0.1-0.9,0.3-1.4
			C696.1,606.4,696.3,605.9,696.5,605.5z"/>
		<path fill="#999999" d="M712.9,593.9h-2.7l-0.1-0.5l5.8-6.5h0.3v4.3h4.4c0.1,0.4,0.1,0.8,0.1,1.3c0,0.2,0,0.5,0,0.7
			s-0.1,0.5-0.1,0.7h-4.4v8c0,1,0,1.7,0.1,2.3s0.2,1,0.4,1.3s0.5,0.5,0.8,0.6s0.7,0.2,1.2,0.2c0.4,0,0.7,0,1.1-0.1
			c0.3-0.1,0.6-0.1,0.9-0.2c0.2,0.5,0.3,0.9,0.3,1.4s0.1,0.9,0.1,1.3c-0.5,0.1-0.9,0.2-1.4,0.3s-1,0.1-1.6,0.1
			c-1.6,0-2.9-0.4-3.8-1.2c-0.9-0.8-1.4-2.1-1.4-3.9L712.9,593.9L712.9,593.9z"/>
		<path fill="#999999" d="M724.2,591.2c0.2,0,0.5-0.1,0.8-0.1s0.6,0,0.8,0s0.5,0,0.8,0s0.6,0.1,0.8,0.1v9.6c0,1.1,0.1,2,0.3,2.7
			s0.5,1.3,0.9,1.7s0.9,0.7,1.5,0.8c0.6,0.2,1.3,0.2,2,0.2c1.2,0,2.1-0.1,3-0.4v-14.6c0.2,0,0.5-0.1,0.8-0.1s0.6,0,0.8,0
			s0.5,0,0.8,0s0.6,0.1,0.8,0.1v16.9c-0.8,0.2-1.7,0.4-2.8,0.6c-1.1,0.2-2.2,0.3-3.4,0.3c-1.1,0-2.2-0.1-3.1-0.3
			c-1-0.2-1.9-0.6-2.6-1.2c-0.7-0.6-1.3-1.4-1.8-2.5c-0.4-1.1-0.6-2.5-0.6-4.2v-9.6H724.2z"/>
		<path fill="#999999" d="M755.1,583.7c0.2,0,0.5-0.1,0.8-0.1s0.6,0,0.8,0s0.5,0,0.8,0s0.6,0.1,0.8,0.1v24.4
			c-0.9,0.2-1.8,0.5-2.9,0.6c-1.1,0.2-2.3,0.3-3.6,0.3c-1.2,0-2.4-0.2-3.5-0.5s-2.1-0.8-2.9-1.5c-0.8-0.7-1.5-1.6-1.9-2.7
			c-0.5-1.1-0.7-2.5-0.7-4.1c0-1.4,0.2-2.7,0.6-3.8c0.4-1.2,1-2.1,1.8-3c0.8-0.8,1.7-1.5,2.8-1.9s2.3-0.7,3.6-0.7
			c0.6,0,1.2,0,1.8,0.1s1.1,0.2,1.6,0.3v-7.5H755.1z M755.1,594.2c-0.5-0.2-0.9-0.3-1.5-0.4c-0.5-0.1-1.1-0.1-1.7-0.1
			c-0.9,0-1.7,0.2-2.4,0.5s-1.2,0.8-1.7,1.4c-0.4,0.6-0.8,1.3-1,2.1s-0.3,1.7-0.3,2.6c0,2.2,0.5,3.7,1.5,4.6c1,0.9,2.4,1.4,4.1,1.4
			c0.6,0,1.1,0,1.6-0.1s0.9-0.1,1.3-0.3v-11.7H755.1z"/>
		<path fill="#999999" d="M766.3,600.8c0,1.9,0.5,3.3,1.5,4.2c0.9,0.9,2.3,1.3,4.2,1.3c1.6,0,3.1-0.3,4.6-0.8
			c0.2,0.3,0.3,0.8,0.4,1.2c0.1,0.5,0.2,1,0.2,1.4c-0.7,0.3-1.6,0.6-2.5,0.7c-0.9,0.2-1.9,0.2-3,0.2c-1.6,0-2.9-0.2-4.1-0.7
			c-1.1-0.4-2.1-1.1-2.8-1.9c-0.7-0.8-1.3-1.8-1.6-2.9c-0.3-1.1-0.5-2.3-0.5-3.6s0.2-2.5,0.5-3.6s0.8-2.1,1.5-2.9
			c0.7-0.8,1.5-1.5,2.6-2s2.2-0.7,3.7-0.7c1.2,0,2.3,0.2,3.2,0.6c0.9,0.4,1.7,1,2.3,1.7s1.1,1.6,1.4,2.5c0.3,1,0.5,2.1,0.5,3.2
			c0,0.3,0,0.7,0,1s0,0.7-0.1,0.9h-12V600.8z M775,598.2c0-0.6-0.1-1.2-0.3-1.8s-0.4-1.1-0.7-1.5s-0.7-0.8-1.3-1
			c-0.5-0.3-1.1-0.4-1.8-0.4c-1.4,0-2.4,0.4-3.2,1.3s-1.2,2-1.3,3.5L775,598.2L775,598.2z"/>
		<path fill="#999999" d="M782.7,591.2c0.2,0,0.5-0.1,0.7-0.1s0.5,0,0.7,0s0.5,0,0.7,0s0.4,0.1,0.7,0.1c0.1,0.3,0.1,0.8,0.2,1.4
			c0.1,0.6,0.1,1.1,0.1,1.4c0.2-0.4,0.5-0.8,0.9-1.2s0.8-0.7,1.2-1c0.5-0.3,1-0.6,1.6-0.7c0.6-0.2,1.2-0.3,1.9-0.3
			c2,0,3.5,0.6,4.4,1.7c1,1.1,1.4,2.8,1.4,5.1v11c-0.2,0-0.5,0.1-0.8,0.1s-0.6,0-0.8,0s-0.5,0-0.8,0s-0.6-0.1-0.8-0.1v-10.1
			c0-1.6-0.3-2.8-0.7-3.6c-0.5-0.8-1.3-1.1-2.4-1.1c-0.6,0-1.2,0.1-1.8,0.3s-1.1,0.6-1.5,1.1s-0.8,1.1-1,1.9
			c-0.3,0.8-0.4,1.7-0.4,2.7v8.8c-0.3,0-0.5,0.1-0.8,0.1s-0.6,0-0.8,0s-0.5,0-0.8,0s-0.6-0.1-0.8-0.1v-17.4H782.7z"/>
		<path fill="#999999" d="M803,593.9h-2.7l-0.1-0.5l5.8-6.5h0.3v4.3h4.4c0.1,0.4,0.1,0.8,0.1,1.3c0,0.2,0,0.5,0,0.7
			s-0.1,0.5-0.1,0.7h-4.4v8c0,1,0,1.7,0.1,2.3s0.2,1,0.4,1.3s0.5,0.5,0.8,0.6s0.7,0.2,1.2,0.2c0.4,0,0.7,0,1.1-0.1
			c0.3-0.1,0.6-0.1,0.9-0.2c0.2,0.5,0.3,0.9,0.3,1.4s0.1,0.9,0.1,1.3c-0.5,0.1-0.9,0.2-1.4,0.3s-1,0.1-1.6,0.1
			c-1.6,0-2.9-0.4-3.8-1.2c-0.9-0.8-1.4-2.1-1.4-3.9L803,593.9L803,593.9z"/>
		<path fill="#999999" d="M814.2,605.5c0.6,0.3,1.3,0.4,2,0.6c0.7,0.1,1.5,0.2,2.2,0.2c0.5,0,1-0.1,1.5-0.2s0.9-0.3,1.2-0.5
			s0.6-0.5,0.8-0.8s0.3-0.7,0.3-1.1c0-0.5-0.1-0.8-0.3-1.1s-0.4-0.5-0.7-0.7s-0.6-0.4-1-0.5s-0.8-0.3-1.2-0.4l-1.2-0.4
			c-1.5-0.5-2.5-1.2-3.2-1.8c-0.7-0.7-1-1.6-1-2.8c0-1.5,0.5-2.8,1.6-3.7s2.7-1.4,4.8-1.4c0.9,0,1.8,0.1,2.6,0.3s1.6,0.4,2.2,0.6
			c0,0.5-0.1,0.9-0.3,1.4c-0.1,0.5-0.3,0.9-0.5,1.3c-0.5-0.2-1.1-0.4-1.8-0.5s-1.4-0.3-2.2-0.3s-1.6,0.1-2.2,0.4
			c-0.6,0.3-1,0.8-1,1.6c0,0.4,0.1,0.7,0.2,1c0.2,0.3,0.4,0.5,0.6,0.7c0.3,0.2,0.6,0.4,0.9,0.5s0.7,0.3,1.1,0.4l1.5,0.5
			c0.5,0.2,1.1,0.4,1.5,0.6c0.5,0.2,0.9,0.6,1.3,0.9c0.4,0.4,0.6,0.8,0.8,1.4c0.2,0.5,0.3,1.2,0.3,1.9c0,0.8-0.2,1.6-0.5,2.3
			s-0.8,1.3-1.4,1.8s-1.4,0.9-2.3,1.1s-1.9,0.4-2.9,0.4c-1.1,0-2-0.1-2.9-0.2c-0.8-0.1-1.6-0.3-2.3-0.6c0-0.5,0.1-0.9,0.3-1.4
			C813.9,606.4,814,605.9,814.2,605.5z"/>
		<path fill="#999999" d="M829.5,608.6c0-0.3-0.1-0.6-0.1-0.9c0-0.3-0.1-0.6-0.1-0.9s0-0.6,0.1-1c0-0.3,0.1-0.7,0.1-1
			c0.3,0,0.6-0.1,0.9-0.1s0.6,0,0.9,0s0.6,0,1,0c0.3,0,0.6,0.1,1,0.1c0,0.3,0.1,0.6,0.1,1s0.1,0.6,0.1,1s0,0.6-0.1,1s-0.1,0.6-0.1,1
			c-0.3,0-0.6,0.1-0.9,0.1s-0.6,0-0.9,0s-0.6,0-1,0C830.1,608.7,829.8,608.7,829.5,608.6z"/>
	</g>
</g>
</svg>
